<?xml version="1.0" standalone="no"?>
<!DOCTYPE svg PUBLIC "-//W3C//DTD SVG 20010904//EN"
 "http://www.w3.org/TR/2001/REC-SVG-20010904/DTD/svg10.dtd">
<svg version="1.0" xmlns="http://www.w3.org/2000/svg"
 width="247.000000pt" height="246.000000pt" viewBox="0 0 247.000000 246.000000"
 preserveAspectRatio="xMidYMid meet">
<metadata>
Created by potrace 1.10, written by Peter Selinger 2001-2011
</metadata>
<g transform="translate(0.000000,246.000000) scale(0.100000,-0.100000)"
fill="#000000" stroke="none">
<path d="M10 1225 l0 -1225 1230 0 1230 0 0 1225 0 1225 -1230 0 -1230 0 0
-1225z m2320 0 l0 -1085 -1090 0 -1090 0 0 1085 0 1085 1090 0 1090 0 0 -1085z"/>
<path d="M660 1225 l0 -485 65 0 65 0 0 485 0 485 -65 0 -65 0 0 -485z"/>
<path d="M865 1668 c7 -24 52 -162 100 -308 48 -146 113 -344 144 -440 l57
-175 71 -3 71 -3 55 168 c31 92 101 306 156 475 56 170 101 312 101 318 0 6
-29 10 -68 10 l-68 0 -113 -347 c-63 -192 -118 -359 -124 -373 -8 -22 -26 25
-131 345 l-122 370 -71 3 -71 3 13 -43z"/>
<path d="M1690 1225 l0 -485 65 0 65 0 0 485 0 485 -65 0 -65 0 0 -485z"/>
</g>
</svg>
